ply
format ascii 1.0
element vertex 192
property float x
property float y
property float z
element tet 495
property list uchar int indices
end_header
0.000000 0.000000 0.000000
0.000000 0.000000 1.000000
0.000000 0.000000 2.000000
0.000000 0.000000 3.000000
0.000000 1.000000 0.000000
0.000000 1.000000 1.000000
0.000000 1.000000 2.000000
0.000000 1.000000 3.000000
0.000000 2.000000 0.000000
0.000000 2.000000 1.000000
0.000000 2.000000 2.000000
0.000000 2.000000 3.000000
0.000000 3.000000 0.000000
0.000000 3.000000 1.000000
0.000000 3.000000 2.000000
0.000000 3.000000 3.000000
1.000000 0.000000 0.000000
1.000000 0.000000 1.000000
1.000000 0.000000 2.000000
1.000000 0.000000 3.000000
1.000000 1.000000 0.000000
1.000000 1.000000 1.000000
1.000000 1.000000 2.000000
1.000000 1.000000 3.000000
1.000000 2.000000 0.000000
1.000000 2.000000 1.000000
1.000000 2.000000 2.000000
1.000000 2.000000 3.000000
1.000000 3.000000 0.000000
1.000000 3.000000 1.000000
1.000000 3.000000 2.000000
1.000000 3.000000 3.000000
2.000000 0.000000 0.000000
2.000000 0.000000 1.000000
2.000000 0.000000 2.000000
2.000000 0.000000 3.000000
2.000000 1.000000 0.000000
2.000000 1.000000 1.000000
2.000000 1.000000 2.000000
2.000000 1.000000 3.000000
2.000000 2.000000 0.000000
2.000000 2.000000 1.000000
2.000000 2.000000 2.000000
2.000000 2.000000 3.000000
2.000000 3.000000 0.000000
2.000000 3.000000 1.000000
2.000000 3.000000 2.000000
2.000000 3.000000 3.000000
3.000000 0.000000 0.000000
3.000000 0.000000 1.000000
3.000000 0.000000 2.000000
3.000000 0.000000 3.000000
3.000000 1.000000 0.000000
3.000000 1.000000 1.000000
3.000000 1.000000 2.000000
3.000000 1.000000 3.000000
3.000000 2.000000 0.000000
3.000000 2.000000 1.000000
3.000000 2.000000 2.000000
3.000000 2.000000 3.000000
3.000000 3.000000 0.000000
3.000000 3.000000 1.000000
3.000000 3.000000 2.000000
3.000000 3.000000 3.000000
4.000000 0.000000 0.000000
4.000000 0.000000 1.000000
4.000000 0.000000 2.000000
4.000000 0.000000 3.000000
4.000000 1.000000 0.000000
4.000000 1.000000 1.000000
4.000000 1.000000 2.000000
4.000000 1.000000 3.000000
4.000000 2.000000 0.000000
4.000000 2.000000 1.000000
4.000000 2.000000 2.000000
4.000000 2.000000 3.000000
4.000000 3.000000 0.000000
4.000000 3.000000 1.000000
4.000000 3.000000 2.000000
4.000000 3.000000 3.000000
5.000000 0.000000 0.000000
5.000000 0.000000 1.000000
5.000000 0.000000 2.000000
5.000000 0.000000 3.000000
5.000000 1.000000 0.000000
5.000000 1.000000 1.000000
5.000000 1.000000 2.000000
5.000000 1.000000 3.000000
5.000000 2.000000 0.000000
5.000000 2.000000 1.000000
5.000000 2.000000 2.000000
5.000000 2.000000 3.000000
5.000000 3.000000 0.000000
5.000000 3.000000 1.000000
5.000000 3.000000 2.000000
5.000000 3.000000 3.000000
6.000000 0.000000 0.000000
6.000000 0.000000 1.000000
6.000000 0.000000 2.000000
6.000000 0.000000 3.000000
6.000000 1.000000 0.000000
6.000000 1.000000 1.000000
6.000000 1.000000 2.000000
6.000000 1.000000 3.000000
6.000000 2.000000 0.000000
6.000000 2.000000 1.000000
6.000000 2.000000 2.000000
6.000000 2.000000 3.000000
6.000000 3.000000 0.000000
6.000000 3.000000 1.000000
6.000000 3.000000 2.000000
6.000000 3.000000 3.000000
7.000000 0.000000 0.000000
7.000000 0.000000 1.000000
7.000000 0.000000 2.000000
7.000000 0.000000 3.000000
7.000000 1.000000 0.000000
7.000000 1.000000 1.000000
7.000000 1.000000 2.000000
7.000000 1.000000 3.000000
7.000000 2.000000 0.000000
7.000000 2.000000 1.000000
7.000000 2.000000 2.000000
7.000000 2.000000 3.000000
7.000000 3.000000 0.000000
7.000000 3.000000 1.000000
7.000000 3.000000 2.000000
7.000000 3.000000 3.000000
8.000000 0.000000 0.000000
8.000000 0.000000 1.000000
8.000000 0.000000 2.000000
8.000000 0.000000 3.000000
8.000000 1.000000 0.000000
8.000000 1.000000 1.000000
8.000000 1.000000 2.000000
8.000000 1.000000 3.000000
8.000000 2.000000 0.000000
8.000000 2.000000 1.000000
8.000000 2.000000 2.000000
8.000000 2.000000 3.000000
8.000000 3.000000 0.000000
8.000000 3.000000 1.000000
8.000000 3.000000 2.000000
8.000000 3.000000 3.000000
9.000000 0.000000 0.000000
9.000000 0.000000 1.000000
9.000000 0.000000 2.000000
9.000000 0.000000 3.000000
9.000000 1.000000 0.000000
9.000000 1.000000 1.000000
9.000000 1.000000 2.000000
9.000000 1.000000 3.000000
9.000000 2.000000 0.000000
9.000000 2.000000 1.000000
9.000000 2.000000 2.000000
9.000000 2.000000 3.000000
9.000000 3.000000 0.000000
9.000000 3.000000 1.000000
9.000000 3.000000 2.000000
9.000000 3.000000 3.000000
10.000000 0.000000 0.000000
10.000000 0.000000 1.000000
10.000000 0.000000 2.000000
10.000000 0.000000 3.000000
10.000000 1.000000 0.000000
10.000000 1.000000 1.000000
10.000000 1.000000 2.000000
10.000000 1.000000 3.000000
10.000000 2.000000 0.000000
10.000000 2.000000 1.000000
10.000000 2.000000 2.000000
10.000000 2.000000 3.000000
10.000000 3.000000 0.000000
10.000000 3.000000 1.000000
10.000000 3.000000 2.000000
10.000000 3.000000 3.000000
11.000000 0.000000 0.000000
11.000000 0.000000 1.000000
11.000000 0.000000 2.000000
11.000000 0.000000 3.000000
11.000000 1.000000 0.000000
11.000000 1.000000 1.000000
11.000000 1.000000 2.000000
11.000000 1.000000 3.000000
11.000000 2.000000 0.000000
11.000000 2.000000 1.000000
11.000000 2.000000 2.000000
11.000000 2.000000 3.000000
11.000000 3.000000 0.000000
11.000000 3.000000 1.000000
11.000000 3.000000 2.000000
11.000000 3.000000 3.000000
4 4 16 1 0
4 21 16 4 20
4 1 16 21 17
4 21 4 1 5
4 4 16 21 1
4 17 1 18 21
4 18 21 6 22
4 6 1 18 2
4 21 1 6 5
4 18 1 6 21
4 6 18 3 2
4 23 18 6 22
4 3 18 23 19
4 23 6 3 7
4 6 18 23 3
4 20 4 21 24
4 21 24 9 25
4 9 4 21 5
4 24 4 9 8
4 21 4 9 24
4 9 21 6 5
4 26 21 9 25
4 6 21 26 22
4 26 9 6 10
4 9 21 26 6
4 22 6 23 26
4 23 26 11 27
4 11 6 23 7
4 26 6 11 10
4 23 6 11 26
4 12 24 9 8
4 29 24 12 28
4 9 24 29 25
4 29 12 9 13
4 12 24 29 9
4 25 9 26 29
4 26 29 14 30
4 14 9 26 10
4 29 9 14 13
4 26 9 14 29
4 14 26 11 10
4 31 26 14 30
4 11 26 31 27
4 31 14 11 15
4 14 26 31 11
4 32 16 33 36
4 33 36 21 37
4 21 16 33 17
4 36 16 21 20
4 33 16 21 36
4 21 33 18 17
4 38 33 21 37
4 18 33 38 34
4 38 21 18 22
4 21 33 38 18
4 34 18 35 38
4 35 38 23 39
4 23 18 35 19
4 38 18 23 22
4 35 18 23 38
4 24 36 21 20
4 41 36 24 40
4 21 36 41 37
4 41 24 21 25
4 24 36 41 21
4 37 21 38 41
4 38 41 26 42
4 26 21 38 22
4 41 21 26 25
4 38 21 26 41
4 26 38 23 22
4 43 38 26 42
4 23 38 43 39
4 43 26 23 27
4 26 38 43 23
4 40 24 41 44
4 41 44 29 45
4 29 24 41 25
4 44 24 29 28
4 41 24 29 44
4 29 41 26 25
4 46 41 29 45
4 26 41 46 42
4 46 29 26 30
4 29 41 46 26
4 42 26 43 46
4 43 46 31 47
4 31 26 43 27
4 46 26 31 30
4 43 26 31 46
4 36 48 33 32
4 53 48 36 52
4 33 48 53 49
4 53 36 33 37
4 36 48 53 33
4 49 33 50 53
4 50 53 38 54
4 38 33 50 34
4 53 33 38 37
4 50 33 38 53
4 38 50 35 34
4 55 50 38 54
4 35 50 55 51
4 55 38 35 39
4 38 50 55 35
4 52 36 53 56
4 53 56 41 57
4 41 36 53 37
4 56 36 41 40
4 53 36 41 56
4 41 53 38 37
4 58 53 41 57
4 38 53 58 54
4 58 41 38 42
4 41 53 58 38
4 54 38 55 58
4 55 58 43 59
4 43 38 55 39
4 58 38 43 42
4 55 38 43 58
4 44 56 41 40
4 61 56 44 60
4 41 56 61 57
4 61 44 41 45
4 44 56 61 41
4 57 41 58 61
4 58 61 46 62
4 46 41 58 42
4 61 41 46 45
4 58 41 46 61
4 46 58 43 42
4 63 58 46 62
4 43 58 63 59
4 63 46 43 47
4 46 58 63 43
4 64 48 65 68
4 65 68 53 69
4 53 48 65 49
4 68 48 53 52
4 65 48 53 68
4 53 65 50 49
4 70 65 53 69
4 50 65 70 66
4 70 53 50 54
4 53 65 70 50
4 66 50 67 70
4 67 70 55 71
4 55 50 67 51
4 70 50 55 54
4 67 50 55 70
4 56 68 53 52
4 73 68 56 72
4 53 68 73 69
4 73 56 53 57
4 56 68 73 53
4 69 53 70 73
4 70 73 58 74
4 58 53 70 54
4 73 53 58 57
4 70 53 58 73
4 58 70 55 54
4 75 70 58 74
4 55 70 75 71
4 75 58 55 59
4 58 70 75 55
4 72 56 73 76
4 73 76 61 77
4 61 56 73 57
4 76 56 61 60
4 73 56 61 76
4 61 73 58 57
4 78 73 61 77
4 58 73 78 74
4 78 61 58 62
4 61 73 78 58
4 74 58 75 78
4 75 78 63 79
4 63 58 75 59
4 78 58 63 62
4 75 58 63 78
4 68 80 65 64
4 85 80 68 84
4 65 80 85 81
4 85 68 65 69
4 68 80 85 65
4 81 65 82 85
4 82 85 70 86
4 70 65 82 66
4 85 65 70 69
4 82 65 70 85
4 70 82 67 66
4 87 82 70 86
4 67 82 87 83
4 87 70 67 71
4 70 82 87 67
4 84 68 85 88
4 85 88 73 89
4 73 68 85 69
4 88 68 73 72
4 85 68 73 88
4 73 85 70 69
4 90 85 73 89
4 70 85 90 86
4 90 73 70 74
4 73 85 90 70
4 86 70 87 90
4 87 90 75 91
4 75 70 87 71
4 90 70 75 74
4 87 70 75 90
4 76 88 73 72
4 93 88 76 92
4 73 88 93 89
4 93 76 73 77
4 76 88 93 73
4 89 73 90 93
4 90 93 78 94
4 78 73 90 74
4 93 73 78 77
4 90 73 78 93
4 78 90 75 74
4 95 90 78 94
4 75 90 95 91
4 95 78 75 79
4 78 90 95 75
4 96 80 97 100
4 97 100 85 101
4 85 80 97 81
4 100 80 85 84
4 97 80 85 100
4 85 97 82 81
4 102 97 85 101
4 82 97 102 98
4 102 85 82 86
4 85 97 102 82
4 98 82 99 102
4 99 102 87 103
4 87 82 99 83
4 102 82 87 86
4 99 82 87 102
4 88 100 85 84
4 105 100 88 104
4 85 100 105 101
4 105 88 85 89
4 88 100 105 85
4 101 85 102 105
4 102 105 90 106
4 90 85 102 86
4 105 85 90 89
4 102 85 90 105
4 90 102 87 86
4 107 102 90 106
4 87 102 107 103
4 107 90 87 91
4 90 102 107 87
4 104 88 105 108
4 105 108 93 109
4 93 88 105 89
4 108 88 93 92
4 105 88 93 108
4 93 105 90 89
4 110 105 93 109
4 90 105 110 106
4 110 93 90 94
4 93 105 110 90
4 106 90 107 110
4 107 110 95 111
4 95 90 107 91
4 110 90 95 94
4 107 90 95 110
4 100 112 97 96
4 117 112 100 116
4 97 112 117 113
4 117 100 97 101
4 100 112 117 97
4 113 97 114 117
4 114 117 102 118
4 102 97 114 98
4 117 97 102 101
4 114 97 102 117
4 102 114 99 98
4 119 114 102 118
4 99 114 119 115
4 119 102 99 103
4 102 114 119 99
4 116 100 117 120
4 117 120 105 121
4 105 100 117 101
4 120 100 105 104
4 117 100 105 120
4 105 117 102 101
4 122 117 105 121
4 102 117 122 118
4 122 105 102 106
4 105 117 122 102
4 118 102 119 122
4 119 122 107 123
4 107 102 119 103
4 122 102 107 106
4 119 102 107 122
4 108 120 105 104
4 125 120 108 124
4 105 120 125 121
4 125 108 105 109
4 108 120 125 105
4 121 105 122 125
4 122 125 110 126
4 110 105 122 106
4 125 105 110 109
4 122 105 110 125
4 110 122 107 106
4 127 122 110 126
4 107 122 127 123
4 127 110 107 111
4 110 122 127 107
4 128 112 129 132
4 129 132 117 133
4 117 112 129 113
4 132 112 117 116
4 129 112 117 132
4 117 129 114 113
4 134 129 117 133
4 114 129 134 130
4 134 117 114 118
4 117 129 134 114
4 130 114 131 134
4 131 134 119 135
4 119 114 131 115
4 134 114 119 118
4 131 114 119 134
4 120 132 117 116
4 137 132 120 136
4 117 132 137 133
4 137 120 117 121
4 120 132 137 117
4 133 117 134 137
4 134 137 122 138
4 122 117 134 118
4 137 117 122 121
4 134 117 122 137
4 122 134 119 118
4 139 134 122 138
4 119 134 139 135
4 139 122 119 123
4 122 134 139 119
4 136 120 137 140
4 137 140 125 141
4 125 120 137 121
4 140 120 125 124
4 137 120 125 140
4 125 137 122 121
4 142 137 125 141
4 122 137 142 138
4 142 125 122 126
4 125 137 142 122
4 138 122 139 142
4 139 142 127 143
4 127 122 139 123
4 142 122 127 126
4 139 122 127 142
4 132 144 129 128
4 149 144 132 148
4 129 144 149 145
4 149 132 129 133
4 132 144 149 129
4 145 129 146 149
4 146 149 134 150
4 134 129 146 130
4 149 129 134 133
4 146 129 134 149
4 134 146 131 130
4 151 146 134 150
4 131 146 151 147
4 151 134 131 135
4 134 146 151 131
4 148 132 149 152
4 149 152 137 153
4 137 132 149 133
4 152 132 137 136
4 149 132 137 152
4 137 149 134 133
4 154 149 137 153
4 134 149 154 150
4 154 137 134 138
4 137 149 154 134
4 150 134 151 154
4 151 154 139 155
4 139 134 151 135
4 154 134 139 138
4 151 134 139 154
4 140 152 137 136
4 157 152 140 156
4 137 152 157 153
4 157 140 137 141
4 140 152 157 137
4 153 137 154 157
4 154 157 142 158
4 142 137 154 138
4 157 137 142 141
4 154 137 142 157
4 142 154 139 138
4 159 154 142 158
4 139 154 159 155
4 159 142 139 143
4 142 154 159 139
4 160 144 161 164
4 161 164 149 165
4 149 144 161 145
4 164 144 149 148
4 161 144 149 164
4 149 161 146 145
4 166 161 149 165
4 146 161 166 162
4 166 149 146 150
4 149 161 166 146
4 162 146 163 166
4 163 166 151 167
4 151 146 163 147
4 166 146 151 150
4 163 146 151 166
4 152 164 149 148
4 169 164 152 168
4 149 164 169 165
4 169 152 149 153
4 152 164 169 149
4 165 149 166 169
4 166 169 154 170
4 154 149 166 150
4 169 149 154 153
4 166 149 154 169
4 154 166 151 150
4 171 166 154 170
4 151 166 171 167
4 171 154 151 155
4 154 166 171 151
4 168 152 169 172
4 169 172 157 173
4 157 152 169 153
4 172 152 157 156
4 169 152 157 172
4 157 169 154 153
4 174 169 157 173
4 154 169 174 170
4 174 157 154 158
4 157 169 174 154
4 170 154 171 174
4 171 174 159 175
4 159 154 171 155
4 174 154 159 158
4 171 154 159 174
4 164 176 161 160
4 181 176 164 180
4 161 176 181 177
4 181 164 161 165
4 164 176 181 161
4 177 161 178 181
4 178 181 166 182
4 166 161 178 162
4 181 161 166 165
4 178 161 166 181
4 166 178 163 162
4 183 178 166 182
4 163 178 183 179
4 183 166 163 167
4 166 178 183 163
4 180 164 181 184
4 181 184 169 185
4 169 164 181 165
4 184 164 169 168
4 181 164 169 184
4 169 181 166 165
4 186 181 169 185
4 166 181 186 182
4 186 169 166 170
4 169 181 186 166
4 182 166 183 186
4 183 186 171 187
4 171 166 183 167
4 186 166 171 170
4 183 166 171 186
4 172 184 169 168
4 189 184 172 188
4 169 184 189 185
4 189 172 169 173
4 172 184 189 169
4 185 169 186 189
4 186 189 174 190
4 174 169 186 170
4 189 169 174 173
4 186 169 174 189
4 174 186 171 170
4 191 186 174 190
4 171 186 191 187
4 191 174 171 175
4 174 186 191 171
