ply
format ascii 1.0
element vertex 20
property float x
property float y
property float z
element tet 20
property list uchar int indices
end_header
0.000000 0.000000 0.000000
0.000000 0.000000 1.000000
0.000000 1.000000 0.000000
0.000000 1.000000 1.000000
1.000000 0.000000 0.000000
1.000000 0.000000 1.000000
1.000000 1.000000 0.000000
1.000000 1.000000 1.000000
2.000000 0.000000 0.000000
2.000000 0.000000 1.000000
2.000000 1.000000 0.000000
2.000000 1.000000 1.000000
3.000000 0.000000 0.000000
3.000000 0.000000 1.000000
3.000000 1.000000 0.000000
3.000000 1.000000 1.000000
4.000000 0.000000 0.000000
4.000000 0.000000 1.000000
4.000000 1.000000 0.000000
4.000000 1.000000 1.000000
4 2 4 1 0
4 7 4 2 6
4 1 4 7 5
4 7 2 1 3
4 2 4 7 1
4 8 4 9 10
4 9 10 7 11
4 7 4 9 5
4 10 4 7 6
4 9 4 7 10
4 10 12 9 8
4 15 12 10 14
4 9 12 15 13
4 15 10 9 11
4 10 12 15 9
4 16 12 17 18
4 17 18 15 19
4 15 12 17 13
4 18 12 15 14
4 17 12 15 18
